<svg xmlns="http://www.w3.org/2000/svg" width="18.667" height="24.5" viewBox="0 0 18.667 24.5">
  <path id="Path_16" data-name="Path 16" d="M20.333,9.167H19.167V6.833a5.833,5.833,0,1,0-11.667,0V9.167H6.333A2.34,2.34,0,0,0,4,11.5V23.167A2.34,2.34,0,0,0,6.333,25.5h14a2.34,2.34,0,0,0,2.333-2.333V11.5A2.34,2.34,0,0,0,20.333,9.167Zm-7,10.5a2.333,2.333,0,1,1,2.333-2.333A2.34,2.34,0,0,1,13.333,19.667Zm3.617-10.5H9.717V6.833a3.617,3.617,0,0,1,7.233,0Z" transform="translate(-4 -1)" fill="#7d7d7d"/>
</svg>
